<?xml version="1.0" standalone="no"?>
<!DOCTYPE svg PUBLIC "-//W3C//DTD SVG 20010904//EN"
 "http://www.w3.org/TR/2001/REC-SVG-20010904/DTD/svg10.dtd">
<svg version="1.0" xmlns="http://www.w3.org/2000/svg"
 width="100px" height="100px" viewBox="0 0 500.000000 500.000000"
 preserveAspectRatio="xMidYMid meet">

<g transform="translate(0.000000,500.000000) scale(0.100000,-0.100000)"
fill="#000000" stroke="none">
<path d="M1250 2802 c-72 -22 -61 -122 13 -122 38 0 50 7 66 38 23 44 -29 100
-79 84z"/>
<path d="M1382 2525 c3 -266 4 -275 25 -296 17 -18 34 -22 85 -23 l63 -1 3 40
c2 34 -1 42 -20 50 -23 10 -23 10 -26 258 l-2 247 -66 0 -65 0 3 -275z"/>
<path d="M3520 2694 l0 -107 -24 26 c-45 49 -154 48 -223 -2 -60 -43 -87 -114
-81 -213 6 -95 36 -149 101 -179 76 -34 175 -19 211 32 l16 23 0 -32 0 -32 60
0 60 0 0 295 0 295 -60 0 -60 0 0 -106z m-48 -145 c59 -32 64 -203 5 -244 -25
-17 -79 -20 -108 -5 -65 35 -66 212 -2 249 24 14 79 14 105 0z"/>
<path d="M780 2490 l0 -280 65 0 65 0 0 115 0 115 125 0 125 0 0 50 0 50 -125
0 -125 0 0 65 0 65 141 0 140 0 -3 48 -3 47 -202 3 -203 2 0 -280z"/>
<path d="M2320 2491 l0 -281 60 0 59 0 3 108 3 107 51 3 c76 4 100 -20 119
-121 8 -43 17 -82 20 -87 6 -9 135 -15 135 -6 0 2 -6 19 -14 37 -8 19 -17 59
-21 89 -9 66 -19 88 -52 117 l-26 21 32 16 c69 36 92 131 48 197 -39 59 -77
70 -257 76 l-160 6 0 -282z m265 165 c39 -17 54 -54 36 -92 -14 -32 -52 -46
-120 -42 l-56 3 -3 59 c-2 32 -1 65 2 72 7 19 96 18 141 0z"/>
<path d="M1761 2636 c-13 -7 -30 -24 -37 -37 -13 -24 -13 -24 -14 9 l0 32 -65
0 -65 0 0 -215 0 -215 64 0 64 0 4 154 c3 134 5 157 22 175 11 12 31 21 45 21
61 -1 71 -29 71 -204 l0 -146 64 0 65 0 3 154 c3 135 5 157 22 175 11 12 31
21 45 21 61 -1 71 -29 71 -204 l0 -146 66 0 66 0 -4 174 c-3 158 -5 177 -24
203 -59 80 -188 84 -239 7 l-18 -27 -13 25 c-26 51 -136 76 -193 44z"/>
<path d="M2896 2636 c-51 -19 -94 -63 -102 -103 l-6 -33 61 0 c44 0 61 4 61
13 0 21 34 47 59 47 40 0 61 -18 61 -54 l0 -33 -69 -5 c-83 -6 -138 -31 -168
-77 -57 -85 7 -191 116 -191 51 0 92 15 113 43 l18 22 0 -27 c0 -28 1 -28 63
-28 l62 0 -5 167 c-6 187 -16 220 -72 249 -44 23 -143 28 -192 10z m134 -271
c0 -45 -29 -75 -73 -75 -38 0 -57 15 -57 45 0 37 40 63 98 64 30 1 32 -1 32
-34z"/>
<path d="M3806 2636 c-51 -19 -94 -63 -102 -103 l-6 -33 61 0 c44 0 61 4 61
13 0 21 34 47 59 47 40 0 61 -18 61 -54 l0 -33 -69 -5 c-83 -6 -138 -31 -168
-77 -57 -85 7 -191 116 -191 51 0 92 15 113 43 l18 22 0 -27 c0 -28 1 -28 63
-28 l62 0 -5 167 c-6 187 -16 220 -72 249 -44 23 -143 28 -192 10z m134 -271
c0 -45 -29 -75 -73 -75 -38 0 -57 15 -57 45 0 37 40 63 98 64 30 1 32 -1 32
-34z"/>
<path d="M4308 2634 c-15 -8 -34 -27 -42 -42 l-15 -27 -1 38 0 37 -65 0 -65 0
0 -215 0 -215 65 0 65 0 0 121 c0 165 23 209 108 211 32 1 32 1 32 55 0 51 -1
53 -27 53 -16 -1 -40 -7 -55 -16z"/>
<path d="M1200 2425 l0 -215 65 0 65 0 0 215 0 215 -65 0 -65 0 0 -215z"/>
</g>
</svg>
